<?xml version="1.0" encoding="utf-8"?>
<!-- Generator: Adobe Illustrator 16.0.0, SVG Export Plug-In . SVG Version: 6.00 Build 0)  -->
<!DOCTYPE svg PUBLIC "-//W3C//DTD SVG 1.1//EN" "http://www.w3.org/Graphics/SVG/1.1/DTD/svg11.dtd">
<svg version="1.1" xmlns="http://www.w3.org/2000/svg" xmlns:xlink="http://www.w3.org/1999/xlink" x="0px" y="0px"
	 width="265.91px" height="265.91px" viewBox="0 0 265.91 265.91" enable-background="new 0 0 265.91 265.91" xml:space="preserve">
<g id="Layer_2">
	
		<rect x="23" y="26" fill-rule="evenodd" clip-rule="evenodd" fill="none" stroke="#303E48" stroke-width="10" stroke-miterlimit="10" width="218" height="218"/>
</g>
<g id="Layer_1">
	<g>
		<path fill-rule="evenodd" clip-rule="evenodd" fill="#303E48" d="M126.486,115.743c-0.646-1.819,0.15-2.945,1.731-3.769
			c1.312-0.685,2.577-1.456,3.765-2.339c-5.317,0.95-10.598,1.957-11.93,8.904c-0.198-0.135-0.395-0.271-0.593-0.407
			c-0.9-1.702-1.8-3.403-2.701-5.106c-0.159,0.058-0.318,0.114-0.479,0.172c0.639,1.776,1.354,3.53,1.889,5.339
			c0.318,1.077,0.674,2.306,0.457,3.352c-0.526,2.528,0.377,5.329-1.636,7.66c-0.362,0.421,0.589,2.436,1.388,3.29
			c1.252,1.342,2.892,2.322,4.197,3.677c-7.99-1.55-13.541-13.705-10.663-23.271c-13.703,4.232-24.05,13.839-35.77,21.031
			c-0.164-0.226-0.329-0.452-0.492-0.678c4.329-3.613,8.524-7.403,13.013-10.806c10.212-7.739,21.535-13.151,34.144-15.815
			c1.378-0.289,2.531-1.639,3.788-2.497c-0.094-0.221-0.188-0.443-0.282-0.664c0.568,0.655,1.138,1.309,1.857,2.137
			c0.71-0.765,1.28-1.378,1.849-1.989c1.045,2.655,1.738,2.47,5.007-1.465c0,1.013,0,1.896,0,2.776
			c0.187,0.135,0.373,0.269,0.56,0.402c1.06-1.216,2.119-2.432,3.178-3.649c0.606,2.768,0.916,2.837,4.996,1.112
			c0.049,3.08,4.402,2.41,8.324-1.037c-0.647,1.183-1.295,2.363-2.047,3.735c3.043,0.718,4.705-1.207,6.917-3.013
			c-0.679,1.644-1.194,2.89-1.972,4.771c3.769-1.37,5.734-4.098,8.517-5.914c-1.482,2.006-2.964,4.011-4.445,6.016
			c0.08,0.125,0.159,0.25,0.239,0.375c1.28-0.631,2.562-1.261,4.024-1.981c-0.522,1.131-0.986,2.136-1.452,3.142
			c0.205,0.205,0.41,0.411,0.615,0.616c3.699-0.456,5.218-4.048,8.085-5.948c-1.744,2.547-3.486,5.093-5.229,7.64
			c0.125,0.226,0.251,0.452,0.376,0.678c1.354-0.661,2.815-1.169,4.03-2.026c1.408-0.994,2.641-2.257,3.873-3.479
			c1.166-1.158,2.232-2.416,3.344-3.63c0.19,0.142,0.38,0.282,0.57,0.423c-1.853,2.555-3.705,5.109-5.777,7.969
			c4.324-1.611,6.704-5.084,9.478-8.068c0.161,0.124,0.322,0.247,0.483,0.372c-2.064,3.113-4.128,6.228-6.47,9.763
			c4.88-2.331,7.478-6.542,10.569-10.205c0.178,0.137,0.356,0.274,0.535,0.41c-2.472,3.492-4.943,6.985-7.382,10.433
			c2.128,1.071,3.26,0.559,15-6.537c-2.367,2.735-4.733,5.47-7.06,8.157c2.076,1.038,3.046,0.694,9.933-3.592
			c-4.602,5.069-10.084,8.74-17.166,8.303c-2.905-0.18-5.676-2.167-8.554-3.205c-6.672-2.404-13.365-4.747-20.068-7.066
			c-0.712-0.247-1.539-0.165-2.686,0.281c0.518,0.387,1.036,0.771,1.556,1.155l0.029-0.05c-0.394,0.836-0.736,1.701-1.2,2.496
			c-0.329,0.563-0.73,1.329-1.257,1.487c-1.413,0.428-1.764,1.245-1.796,2.629c-0.014,0.603-0.743,1.379-1.35,1.732
			c-0.848,0.5-1.885,0.678-3.552,1.226c1.06-1.68,1.767-2.805,2.815-4.469c-1.664,0.94-2.833,1.602-4.468,2.526
			c0.489-1.847,0.86-3.249,1.407-5.309c-1.171,1.528-1.941,2.536-3.065,4.003c-0.219-1.854-0.373-3.168-0.597-5.066
			c-0.848,1.717-1.427,2.89-2.201,4.456c-0.631-1.573-1.12-2.787-1.869-4.654c0,1.981,0,3.313,0,4.645
			c-0.163,0.074-0.324,0.147-0.486,0.222c-0.579-0.728-1.158-1.456-1.982-2.491c0.174,1.306,0.301,2.254,0.48,3.617
			c-1.551-0.982-2.783-1.763-4.016-2.541C126.704,116.003,126.596,115.873,126.486,115.743z"/>
		<path fill-rule="evenodd" clip-rule="evenodd" fill="#303E48" d="M156.747,142.6c1.781,5.668,3.373,10.733,4.964,15.796
			c-0.298,0.088-0.595,0.177-0.892,0.263c-0.347-1.502-0.522-3.072-1.076-4.493c-0.823-2.114-1.737-4.236-2.96-6.133
			c-0.67-1.038-1.946-1.875-3.132-2.354c-2.731-1.102-3.938-0.063-3.435,2.865c0.249,1.451,0.815,2.849,1.228,4.228
			c-2.127-2.082-4.28-4.192-6.435-6.3c-0.254,0.189-0.508,0.38-0.762,0.568c1.949,5.092,4.699,9.975,4.421,15.668
			c-0.799-5.556-2.739-10.467-7.167-13.737c-0.594,3.961-1.182,7.882-1.77,11.803c-0.271-0.028-0.544-0.056-0.815-0.085
			c0-0.526-0.03-1.057,0.008-1.581c0.047-0.631,0.239-1.259,0.218-1.884c-0.082-2.353-0.015-4.74-0.416-7.044
			c-0.283-1.622-1.453-2.829-3.438-2.499c-1.921,0.32-1.929,1.812-1.955,3.263c-0.024,1.418-0.005,2.837-0.005,4.061
			c-0.585-1.562-1.124-3.383-1.935-5.074c-1.175-2.45-2.106-2.538-3.609-0.336c-1.692,2.478-3.212,5.074-4.81,7.616
			c-0.443,0.704-0.902,1.399-1.668,1.941c1.111-3.605,2.222-7.211,3.333-10.818c-0.331-0.146-0.663-0.292-0.993-0.439
			c-1.167,1.854-2.332,3.709-3.684,5.854c0-2.056,0-3.825,0-5.594c-0.21-0.139-0.42-0.278-0.632-0.418
			c-2.217,1.631-4.435,3.26-6.961,5.116c0.868-1.378,1.565-2.401,2.179-3.471c1.25-2.182,0.164-4.351-2.367-4.153
			c-1.682,0.131-3.338,1.134-4.906,1.938c-0.849,0.438-1.491,1.275-2.521,1.698c0.299-0.698,0.753-1.374,0.857-2.1
			c0.125-0.859,0.219-1.943-0.205-2.573c-0.24-0.354-1.677-0.248-2.348,0.095c-2.376,1.218-4.655,2.625-7.39,4.201
			c0.868-1.252,1.542-2.149,2.135-3.099c1.068-1.709,0.698-2.679-1.326-2.937c-2.268-0.288-4.573-0.264-6.857-0.438
			c-4.081-0.309-8.164-0.608-12.232-1.037c-0.959-0.102-1.866-0.698-2.747-1.295c7.395,2.012,14.792-0.226,22.144,0.282
			c3.6,0.248,7.219,0.854,10.721,1.724c8.474,2.103,16.979,3.908,25.761,3.371c12.631-0.769,24.58-3.706,34.306-12.413
			c2.557-2.287,4.656-5.151,6.676-7.957c2.575-3.582,4.154-3.923,8.068-0.961c-1.093-0.082-1.971-0.147-2.849-0.215
			c-0.089,0.186-0.179,0.37-0.269,0.556c2.021,1.254,4.039,2.51,6.104,3.793c-1.527-0.097-2.986-0.189-4.447-0.282
			c-0.146,0.183-0.291,0.364-0.436,0.545c1.241,1.481,2.482,2.963,4.055,4.84c-2.008-1.036-3.605-1.859-5.202-2.684
			c-0.147,0.19-0.294,0.381-0.441,0.571c0.685,1.07,1.368,2.139,2.192,3.428c-3.286-0.848-6.084-3.153-10.321-2.037
			c1.55,1.71,2.796,3.083,3.865,4.264c-0.925,0.058-2.013,0.123-3.102,0.188c0.356,1.163,0.527,2.429,1.106,3.465
			c1.061,1.898,2.362,3.66,3.373,5.659c-2.709-2.515-5.417-5.031-8.127-7.546c-0.242,0.158-0.485,0.318-0.728,0.479
			c0.464,1.23,0.926,2.461,1.426,3.788c-1.687-1.079-3.306-2.118-4.924-3.155c-0.187,0.177-0.375,0.354-0.562,0.53
			c0.698,4.553,3.578,8.212,5.646,12.823C164.885,148.868,162.619,143.941,156.747,142.6z"/>
		<path fill-rule="evenodd" clip-rule="evenodd" fill="#303E48" d="M128.918,131.709c-0.146,0.961-0.291,1.922-0.528,3.485
			c1.29-1.647,2.222-2.837,3.487-4.451c0,1.896,0,3.229,0,5.094c0.727-1.671,1.248-2.869,2.007-4.613
			c0.69,1.983,1.212,3.479,1.949,5.597c0.262-2.01,0.444-3.423,0.696-5.353c0.766,1.109,1.296,1.878,2.148,3.115
			c-0.306-1.535-0.515-2.582-0.819-4.115c1.505,0.995,2.674,1.767,4.458,2.945c-0.952-1.669-1.548-2.713-2.467-4.327
			c1.861,0.648,3.201,1.114,5.188,1.807c-1.287-1.448-2.167-2.439-3.048-3.433c0.116-0.245,0.232-0.49,0.348-0.735
			c2.394,0.858,4.788,1.717,7.502,2.691c-3.316,5.226-7.622,8.3-13.065,9.383c-2.943,0.588-6.109,0.381-9.14,0.123
			c-2.385-0.203-2.941-1.571-1.794-3.603c0.757-1.339,1.717-2.565,2.586-3.843C128.59,131.554,128.754,131.631,128.918,131.709z"/>
		<path fill-rule="evenodd" clip-rule="evenodd" fill="#303E48" d="M149.919,111.675c4.164,3.478,3.509,7.896,2.352,12.365
			c-0.37,1.434-1.013,2.797-1.546,4.228c-2.623-1.21-5.075-2.341-7.853-3.622c0.952-0.348,1.825-0.668,2.626-0.961
			c-0.134-0.353-0.506-0.948-0.387-1.073c1.011-1.054,2.148-1.986,3.171-3.029c0.564-0.576,1.318-1.255,1.405-1.958
			c0.244-1.972,0.187-3.982,0.254-5.987C149.948,111.625,149.919,111.675,149.919,111.675z"/>
		<path fill-rule="evenodd" clip-rule="evenodd" fill="#303E48" d="M125.333,128.919c0.813-0.24,1.626-0.482,2.802-0.829
			c-1.587,2.545-3.003,4.813-4.474,7.172c-1.142-1.181-2.163-2.348-1.116-4.374c0.308-0.596-0.086-2.153-0.637-2.492
			c-2.601-1.599-1.35-3.737-1.432-6.09c2.676,1.392,3.453,4.849,7.126,3.886c-0.105,0.248-0.211,0.496-0.315,0.745
			c-0.721,0.569-1.44,1.142-2.16,1.712C125.195,128.738,125.264,128.829,125.333,128.919z"/>
		<path fill-rule="evenodd" clip-rule="evenodd" fill="#303E48" d="M126.486,115.743c0.109,0.13,0.218,0.26,0.326,0.391
			c0.776,1.168,1.552,2.337,2.69,4.051c-1.918-0.549-3.324-0.951-5.259-1.505c1.401,1.18,2.42,2.038,3.657,3.08
			c-2.702,0.709-4.922,0.874-6.531-1.528C121.718,117.188,123.87,116.201,126.486,115.743z"/>
	</g>
</g>
</svg>
