<?xml version="1.0" encoding="utf-8"?>
<!-- Generator: Adobe Illustrator 16.0.0, SVG Export Plug-In . SVG Version: 6.00 Build 0)  -->
<!DOCTYPE svg PUBLIC "-//W3C//DTD SVG 1.1//EN" "http://www.w3.org/Graphics/SVG/1.1/DTD/svg11.dtd">
<svg version="1.1" xmlns="http://www.w3.org/2000/svg" xmlns:xlink="http://www.w3.org/1999/xlink" x="0px" y="0px" width="235px"
	 height="236.334px" viewBox="0 0 235 236.334" enable-background="new 0 0 235 236.334" xml:space="preserve">
<g id="Layer_2">
	<circle fill-rule="evenodd" clip-rule="evenodd" fill="#303E48" cx="117.48" cy="118.095" r="109.653"/>
</g>
<g id="Layer_1">
	<g>
		<path fill-rule="evenodd" clip-rule="evenodd" fill="#FFFFFF" d="M177.836,155.4c0.435-0.488,1.337-1.135,1.232-1.446
			c-4.239-12.69-16.728-28.079-35.812-23.706c-4.371,1.001-8.523,2.949-12.892,3.963c-2.562,0.594-5.702,1.045-7.976,0.1
			c-7.779-3.23-14.65-2.896-21.256,2.748c-2.05,1.751-5.023,2.389-7.485,3.704c-1.411,0.754-2.645,1.843-3.959,2.781
			c0.946,1.26,1.771,2.641,2.877,3.741c0.947,0.943,2.216,1.565,4.389,3.04c-5.371,1.758-9.771,3.546-14.338,4.616
			c-8.064,1.89-16.204,3.508-24.364,4.932c-8.092,1.41-11.788-1.285-11.413-7.62c0.417-7.059,1.933-14.398,6.743-20.138
			c5.682-6.779,11.753-13.233,17.644-19.838c0.806-0.901,1.545-1.86,2.315-2.793l-0.138,0.137
			c8.376-5.645,16.908-11.076,25.003-17.1c1.807-1.345,2.179-4.727,3.026-7.232c1.934-5.719,3.423-11.612,5.727-17.17
			c1.665-4.014,4.852-6.841,10.383-6.736c-0.228,1.599-0.473,2.893-0.586,4.199c-0.435,5.025-1.184,10.061-1.127,15.084
			c0.05,4.375,2.585,6.955,7.181,8.051c7.784,1.854,15.614,3.83,23.069,6.684c12.542,4.801,22.318,13.264,28.258,25.412
			c3.633,7.428,6.169,15.385,9.412,23.014c0.937,2.203,2.267,4.474,4.011,6.057c6.902,6.266,8.579,14.66,3.879,22.766
			c-2.207-5.311-5.714-8.787-11.315-10.115c-1.587-0.377-2.806-2.313-4.102-3.453c-1.361,0.217-3.044,0.555-4.744,0.742
			c-3.504,0.387-7.017,0.695-11.043,1.086c-2.646-9.916,8.171-9.902,13.564-15.317c1.424,3.585,2.68,6.745,3.924,9.896
			c-1.418-2.32-2.823-4.632-4.229-6.94c-11.216,6.475-11.216,6.475-10.733,9.644c4.924-0.512,9.846-1.023,14.769-1.535
			c0.971,1.41,1.631,3.389,2.973,4.12c3.37,1.839,7.05,3.116,10.469,4.561c0.948-7.536-4.046-15.092-12.46-17.349
			c0.692,2.254,1.334,4.193,1.883,6.157c0.806,2.878-0.26,3.714-2.985,2.626C177.683,156.314,177.76,155.857,177.836,155.4z
			 M172.629,132.361c-0.376-1.297-0.441-1.833-0.674-2.281c-5.92-11.375-23.126-16.191-33.683-9.055
			c-5.158,3.486-9.706,7.874-14.529,11.853c0.16,0.379,0.319,0.757,0.479,1.137c7.177-2.128,14.245-4.796,21.558-6.239
			c8.127-1.605,15.159,2.441,21.905,6.652c0.266-0.474,0.531-0.947,0.797-1.422c-4.252-2.7-8.505-5.399-13.592-8.629
			C162.53,124.174,167.314,127.987,172.629,132.361z M52.367,159.391c13.283-2.714,26.567-5.429,39.852-8.143
			c-1.538-2.609-2.85-4.15-4.514-5.012c-1.209-0.624-3.424-1.035-4.267-0.371C74.276,153.095,62.133,152.49,52.367,159.391z
			 M92.178,131.881c-6.26-3.524-15.954,0.364-17.675,7.117c-0.679,2.666,0.324,3.781,3.02,3.209
			C83.759,140.885,90.023,139.572,92.178,131.881z"/>
		<path fill-rule="evenodd" clip-rule="evenodd" fill="#FFFFFF" d="M139.785,141.639c-1.72,2.156-2.57,3.601-3.764,4.657
			c-10.478,9.274-34.491,8.1-44.486-2.124c0.079-0.25,0.08-0.654,0.25-0.744c5.877-3.153,11.722-6.373,17.694-9.333
			c1.419-0.703,3.443-1.095,4.898-0.657C122.544,135.891,130.621,138.643,139.785,141.639z"/>
		<path fill-rule="evenodd" clip-rule="evenodd" fill="#FFFFFF" d="M73.542,109.484c-3.843,3.031-7.687,6.064-11.473,9.051
			c-0.739-6.896,3.941-14.495,11.338-16.835c0,2.847,0,5.381-0.001,7.919C73.404,109.621,73.542,109.484,73.542,109.484z"/>
	</g>
</g>
</svg>
