<?xml version="1.0" encoding="utf-8"?>
<!-- Generator: Adobe Illustrator 16.0.0, SVG Export Plug-In . SVG Version: 6.00 Build 0)  -->
<!DOCTYPE svg PUBLIC "-//W3C//DTD SVG 1.1//EN" "http://www.w3.org/Graphics/SVG/1.1/DTD/svg11.dtd">
<svg version="1.1" xmlns="http://www.w3.org/2000/svg" xmlns:xlink="http://www.w3.org/1999/xlink" x="0px" y="0px" width="235px"
	 height="236.334px" viewBox="0 0 235 236.334" enable-background="new 0 0 235 236.334" xml:space="preserve">
<g id="Layer_2">
	
		<circle fill-rule="evenodd" clip-rule="evenodd" fill="#FFFFFF" stroke="#303E48" stroke-width="3" stroke-miterlimit="10" cx="117.417" cy="117.625" r="109.653"/>
</g>
<g id="Layer_1">
	<g>
		<path fill-rule="evenodd" clip-rule="evenodd" fill="#303E48" d="M144.814,133.489c-7.793,4.496-15.022,8.668-22.556,13.016
			c0-8.767,0-17.248,0-26.078C129.727,124.751,137.058,128.997,144.814,133.489z"/>
		<path fill-rule="evenodd" clip-rule="evenodd" fill="#303E48" d="M144.808,165.107c-7.685,4.435-15.042,8.681-22.675,13.084
			c0-8.867,0-17.294,0-26.19C129.761,156.409,137.12,160.663,144.808,165.107z"/>
		<path fill-rule="evenodd" clip-rule="evenodd" fill="#303E48" d="M122.148,83.313c0-8.903,0-17.326,0-26.193
			c7.635,4.418,14.984,8.667,22.645,13.098C137.162,74.631,129.863,78.852,122.148,83.313z"/>
		<path fill-rule="evenodd" clip-rule="evenodd" fill="#303E48" d="M117.417,117.625c-7.62,4.429-14.89,8.656-22.474,13.063
			c0-8.738,0-17.146,0-26.049C102.403,108.949,109.734,113.187,117.417,117.625z"/>
		<path fill-rule="evenodd" clip-rule="evenodd" fill="#303E48" d="M117.436,149.257c-7.769,4.512-15.027,8.728-22.56,13.103
			c0-8.872,0-17.274,0-26.128C102.455,140.607,109.723,144.804,117.436,149.257z"/>
		<path fill-rule="evenodd" clip-rule="evenodd" fill="#303E48" d="M118.713,146.409c-7.51-4.33-14.73-8.494-22.389-12.912
			c7.557-4.379,14.868-8.617,22.389-12.976C118.713,129.33,118.713,137.672,118.713,146.409z"/>
		<path fill-rule="evenodd" clip-rule="evenodd" fill="#303E48" d="M146,162.218c-7.493-4.348-14.756-8.563-22.332-12.958
			c7.538-4.354,14.777-8.536,22.332-12.9C146,145.071,146,153.438,146,162.218z"/>
		<path fill-rule="evenodd" clip-rule="evenodd" fill="#303E48" d="M118.789,152.097c0,8.781,0,17.067,0,25.952
			c-7.539-4.338-14.804-8.519-22.459-12.925C103.852,160.761,111.095,156.561,118.789,152.097z"/>
		<path fill-rule="evenodd" clip-rule="evenodd" fill="#303E48" d="M96.328,70.225c7.549-4.366,14.811-8.565,22.386-12.945
			c0,8.759,0,17.063,0,25.857C111.158,78.778,103.891,74.587,96.328,70.225z"/>
		<path fill-rule="evenodd" clip-rule="evenodd" fill="#303E48" d="M146.057,104.707c0,8.793,0,17.11,0,25.89
			c-7.589-4.394-14.867-8.606-22.406-12.971C131.163,113.296,138.447,109.096,146.057,104.707z"/>
	</g>
</g>
</svg>
