<?xml version="1.0" encoding="utf-8"?>
<!-- Generator: Adobe Illustrator 16.0.0, SVG Export Plug-In . SVG Version: 6.00 Build 0)  -->
<!DOCTYPE svg PUBLIC "-//W3C//DTD SVG 1.1//EN" "http://www.w3.org/Graphics/SVG/1.1/DTD/svg11.dtd">
<svg version="1.1" xmlns="http://www.w3.org/2000/svg" xmlns:xlink="http://www.w3.org/1999/xlink" x="0px" y="0px" width="235px"
	 height="236.334px" viewBox="0 0 235 236.334" enable-background="new 0 0 235 236.334" xml:space="preserve">
<g id="Layer_2">
	<circle fill-rule="evenodd" clip-rule="evenodd" fill="#303E48" cx="117.511" cy="117.305" r="109.653"/>
</g>
<g id="Layer_1">
	<g>
		<path fill-rule="evenodd" clip-rule="evenodd" fill="#FFFFFF" d="M149.518,165.419c-2.316-5.699-4.388-10.898-6.54-16.064
			c-2.449-5.876-6.641-9.901-12.727-11.982c-3.413-1.167-6.804-2.447-10.091-3.928c-3.027-1.364-5.904-3.065-8.848-4.618
			c0.052-0.277,0.103-0.554,0.154-0.831c3.26-0.246,5.436-1.873,6.813-4.706c0.301-0.622,1.188-1.157,1.905-1.331
			c0.97-0.237,2.034-0.089,3.059-0.106c-0.156,0.934-0.011,2.101-0.522,2.757c-1.618,2.079-3.481,3.968-5.559,6.274
			c1.756,0.786,3.514,1.436,5.136,2.329c2.761,1.52,4.553,0.473,5.934-1.963c0.347-0.609,0.668-1.236,0.946-1.881
			c0.685-1.573,1.589-1.639,3.104-0.893c3.411,1.681,6.898,3.23,10.448,4.591c1.119,0.431,2.542,0.013,3.811,0.134
			c0.906,0.089,2.001,0.17,2.646,0.7c3.173,2.607,6.613,2.883,10.469,1.932c1.373-0.338,3.078-0.095,4.438,0.407
			c5.05,1.861,9.821,3.051,14.735-0.726c2.327-1.79,4.857-3.088,5.729-6.174c0.162-0.571,0.885-1.067,1.456-1.426
			c3.036-1.91,3.763-3.653,2.674-6.63c-1.307-3.57-3.072-4.604-6.557-4.391c-1.708,0.105-3.485-0.285-5.177-0.686
			c-4.4-1.044-8.503-0.922-12.159,2.211c-0.708,0.606-2.073,1.246-2.699,0.95c-0.86-0.406-1.303-1.693-1.934-2.6
			c-1.372-1.972-2.742-3.948-4.132-5.911c-0.602-0.852-1.578-1.594-1.801-2.525c-0.471-1.975-1.707-2.366-3.457-2.667
			c-1.57-0.269-3.041-1.119-4.336-1.625c2.201-3.294,4.168-5.914,5.771-8.743c1.223-2.157,0.352-3.322-2.017-3.772
			c-1.029-0.197-1.932-1.007-2.921-1.475c-1.564-0.741-3.121-1.937-4.738-2.04c-3.884-0.247-6.006-3.047-7.402-5.689
			c-2.215-4.192-3.875-8.844-4.826-13.495c-0.974-4.754-3.912-6.505-7.995-7.264c-4.033-0.751-7.431,1.303-10.665,3.206
			c-0.898,0.528-1.56,2.83-1.177,3.91c1.207,3.414-0.571,5.355-2.545,7.632c-1.193,1.375-1.671,3.383-2.413,5.131
			c-0.184,0.435-0.043,1.015-0.239,1.438c-1.027,2.217-2.116,4.405-3.27,6.779c-0.015-0.01-0.825-0.185-1.134-0.676
			c-2.074-3.297-7.284-2.92-8.466-7.266c-0.083-0.301-0.94-0.321-1.309-0.629c-0.757-0.631-1.652-1.252-2.085-2.086
			c-0.952-1.837-7.268-3.789-8.918-2.523c-0.514,0.392-0.924,1.07-1.124,1.701c-1.488,4.666-2.788,9.397-4.396,14.021
			c-1.296,3.729-2.971,7.483-7.422,8.259c-3.142,0.55-5.104,2.224-6.321,4.921c-1.257,2.785-3.031,4.759-6.007,5.919
			c-1.129,0.442-2.178,2.294-2.388,3.641c-0.485,3.106,1.596,4.844,4.304,5.648c2.254,0.672,3.187,1.613,2.929,4.23
			c-0.535,5.43,2.479,8.348,8.08,8.471c0.444,0.012,0.989,0.225,1.309,0.531c4.472,4.297,10.72,1.688,15.683,4.052
			c0.152,0.072,0.393-0.073,0.589-0.061c1.535,0.093,3.128-0.034,4.589,0.346c3.558,0.925,6.173,0.259,8.034-2.361
			c2.405-3.387,3.702-3.472,6.199,0.044c3.465,4.88,8.196,7.835,13.698,9.819c2.071,0.748,4.173,1.511,6.079,2.587
			c2.801,1.582,3.12,3.942,0.771,6.084c-2.213,2.016-4.829,3.589-7.054,5.595c-1.502,1.355-2.634,3.123-3.931,4.708
			c0.229,0.261,0.457,0.523,0.685,0.785C125.954,165.419,137.512,165.419,149.518,165.419z M131.66,177.132
			c7.113,0,14.236-0.202,21.34,0.073c4.55,0.176,8.189-0.443,9.434-5.563c0.085-0.346,0.568-0.578,0.728-0.927
			c0.874-1.914,1.778-3.824,2.484-5.803c0.135-0.382-0.543-1.514-0.89-1.535c-2.518-0.146-5.317-1.065-7.088,1.75
			c-1.44,2.292-3.481,2.943-6.125,2.925c-12.524-0.095-25.051-0.095-37.575-0.009c-3.485,0.024-6.884,0.242-8.809-3.495
			c-0.086-0.169-0.278-0.385-0.435-0.396c-2.188-0.17-4.378-0.306-6.568-0.45c0.124,1.818-0.229,3.856,0.482,5.404
			c1.028,2.237,2.646,4.293,4.369,6.084c0.963,1.002,2.634,1.828,4.004,1.855C115.225,177.216,123.443,177.13,131.66,177.132z"/>
		<path fill-rule="evenodd" clip-rule="evenodd" fill="#FFFFFF" d="M149.518,165.419c-12.006,0-23.563,0-35.123,0
			c-0.228-0.262-0.456-0.524-0.685-0.785c1.297-1.585,2.429-3.353,3.931-4.708c2.225-2.006,4.841-3.579,7.054-5.595
			c2.349-2.142,2.029-4.502-0.771-6.084c-1.906-1.076-4.008-1.839-6.079-2.587c-5.502-1.984-10.233-4.939-13.698-9.819
			c-2.497-3.516-3.794-3.431-6.199-0.044c-1.861,2.62-4.477,3.286-8.034,2.361c-1.461-0.38-3.054-0.253-4.589-0.346
			c-0.196-0.013-0.437,0.133-0.589,0.061c-4.963-2.364-11.211,0.245-15.683-4.052c-0.319-0.307-0.864-0.52-1.309-0.531
			c-5.601-0.123-8.615-3.041-8.08-8.471c0.258-2.617-0.675-3.559-2.929-4.23c-2.708-0.805-4.789-2.542-4.304-5.648
			c0.21-1.347,1.259-3.198,2.388-3.641c2.976-1.16,4.75-3.134,6.007-5.919c1.217-2.697,3.18-4.371,6.321-4.921
			c4.451-0.775,6.126-4.529,7.422-8.259c1.607-4.623,2.907-9.354,4.396-14.021c0.2-0.631,0.61-1.31,1.124-1.701
			c1.65-1.266,7.966,0.687,8.918,2.523c0.433,0.834,1.328,1.455,2.085,2.086c0.368,0.308,1.226,0.328,1.309,0.629
			c1.182,4.346,6.392,3.969,8.466,7.266c0.309,0.491,1.119,0.666,1.134,0.676c1.153-2.374,2.242-4.563,3.27-6.779
			c0.196-0.424,0.056-1.004,0.239-1.438c0.742-1.748,1.22-3.756,2.413-5.131c1.974-2.276,3.752-4.218,2.545-7.632
			c-0.383-1.08,0.278-3.382,1.177-3.91c3.234-1.903,6.632-3.957,10.665-3.206c4.083,0.759,7.021,2.51,7.995,7.264
			c0.951,4.651,2.611,9.303,4.826,13.495c1.396,2.643,3.519,5.442,7.402,5.689c1.617,0.104,3.174,1.299,4.738,2.04
			c0.989,0.468,1.892,1.277,2.921,1.475c2.368,0.45,3.239,1.615,2.017,3.772c-1.604,2.829-3.57,5.449-5.771,8.743
			c1.295,0.506,2.766,1.356,4.336,1.625c1.75,0.301,2.986,0.692,3.457,2.667c0.223,0.932,1.199,1.674,1.801,2.525
			c1.39,1.963,2.76,3.939,4.132,5.911c0.631,0.906,1.073,2.193,1.934,2.6c0.626,0.296,1.991-0.344,2.699-0.95
			c3.656-3.133,7.759-3.255,12.159-2.211c1.691,0.4,3.469,0.791,5.177,0.686c3.484-0.213,5.25,0.82,6.557,4.391
			c1.089,2.977,0.362,4.72-2.674,6.63c-0.571,0.358-1.294,0.854-1.456,1.426c-0.871,3.086-3.401,4.384-5.729,6.174
			c-4.914,3.776-9.686,2.587-14.735,0.726c-1.36-0.502-3.065-0.745-4.438-0.407c-3.855,0.951-7.296,0.676-10.469-1.932
			c-0.645-0.53-1.739-0.611-2.646-0.7c-1.269-0.121-2.691,0.297-3.811-0.134c-3.55-1.36-7.037-2.91-10.448-4.591
			c-1.515-0.746-2.419-0.681-3.104,0.893c-0.278,0.645-0.6,1.271-0.946,1.881c-1.381,2.436-3.173,3.482-5.934,1.963
			c-1.622-0.894-3.38-1.543-5.136-2.329c2.077-2.307,3.94-4.195,5.559-6.274c0.512-0.656,0.366-1.823,0.522-2.757
			c-1.024,0.018-2.089-0.131-3.059,0.106c-0.717,0.174-1.604,0.709-1.905,1.331c-1.377,2.833-3.553,4.46-6.813,4.706
			c-0.052,0.277-0.103,0.554-0.154,0.831c2.943,1.553,5.82,3.254,8.848,4.618c3.287,1.48,6.678,2.761,10.091,3.928
			c6.086,2.081,10.277,6.106,12.727,11.982C145.13,154.521,147.201,159.72,149.518,165.419z"/>
		<path fill-rule="evenodd" clip-rule="evenodd" fill="#FFFFFF" d="M131.66,177.132c-8.217-0.002-16.436,0.084-24.648-0.085
			c-1.37-0.027-3.041-0.854-4.004-1.855c-1.723-1.791-3.341-3.847-4.369-6.084c-0.711-1.548-0.358-3.586-0.482-5.404
			c2.19,0.145,4.381,0.28,6.568,0.45c0.156,0.011,0.349,0.227,0.435,0.396c1.925,3.737,5.323,3.52,8.809,3.495
			c12.524-0.086,25.051-0.086,37.575,0.009c2.644,0.019,4.685-0.633,6.125-2.925c1.771-2.815,4.57-1.896,7.088-1.75
			c0.347,0.021,1.024,1.153,0.89,1.535c-0.706,1.979-1.61,3.889-2.484,5.803c-0.159,0.349-0.643,0.581-0.728,0.927
			c-1.244,5.119-4.884,5.738-9.434,5.563C145.896,176.93,138.773,177.132,131.66,177.132z"/>
	</g>
</g>
</svg>
