<?xml version="1.0" encoding="utf-8"?>
<!-- Generator: Adobe Illustrator 16.0.0, SVG Export Plug-In . SVG Version: 6.00 Build 0)  -->
<!DOCTYPE svg PUBLIC "-//W3C//DTD SVG 1.1//EN" "http://www.w3.org/Graphics/SVG/1.1/DTD/svg11.dtd">
<svg version="1.1" xmlns="http://www.w3.org/2000/svg" xmlns:xlink="http://www.w3.org/1999/xlink" x="0px" y="0px" width="235px"
	 height="236.334px" viewBox="0 0 235 236.334" enable-background="new 0 0 235 236.334" xml:space="preserve">
<g id="Layer_2">
	<circle fill-rule="evenodd" clip-rule="evenodd" fill="#303E48" cx="117.193" cy="118.095" r="109.653"/>
</g>
<g id="Layer_1">
	<g>
		<path fill-rule="evenodd" clip-rule="evenodd" fill="#FFFFFF" d="M57.697,101.902c6.597-14.821,19.47-20.684,34.194-23.682
			c3.83-0.779,7.107-1.994,9.658-5.057c1.469-1.764,3.385-3.216,5.633-3.704c2.417-0.526,3.86-2.032,5.526-3.654
			c9.267-9.028,19.931-14.704,33.407-13.21c3.83,0.424,7.321,1.768,10.373,4.013c9.062,6.666,18.282,13.187,25.503,21.97
			c1.702,2.071,3.027,1.864,4.515,0.136c0.953-1.108,1.682-2.408,2.529-3.609c2.656-3.762,6.784-4.054,9.817-0.618
			c0.783,0.887,1.502,1.944,1.888,3.051c3.896,11.193,5.764,22.602,2.362,34.246c-3.97,13.589-14.587,20.663-28.609,19.15
			c-2.708-0.293-3.892,0.114-4.928,2.899c-3.408,9.166-12.403,11.303-19.786,4.958c-0.847-0.729-1.76-1.162-3.118-1.504
			c1.786,8.041,3.472,15.929,3.37,24.115c-0.044,3.524-1.605,4.815-4.572,5.247c-3.193,0.463-6.455,0.718-9.62,0.146
			c-5.583-1.008-9.942,0.456-13.223,5.234c-1.365,1.987-3.423,3.365-5.481,4.663c-3.353,2.114-6.521,2.207-9.52-0.644
			c-5.117-4.863-10.041-9.809-9.289-17.767c0.097-1.016,1.846-2.36,0.006-3.016c-1.277-0.455-2.948-0.215-4.329,0.149
			c-1.115,0.295-1.179,1.733-1.4,2.732c-1.051,4.735-3.166,9.104-4.584,13.706c-0.677,2.195-1.941,3.104-4.266,3.479
			c-5.757,0.927-11.222,0.006-16.523-2.049c-4.882-1.893-6.421-4.324-5.845-9.576c0.264-2.393-0.946-2.655-2.605-3.062
			c-7.456-1.827-11.414-7.029-13.428-14.065c-0.559-1.952-0.325-3.531,1.467-4.951c4.498-3.564,6.362-8.451,6.56-14.09
			c0.084-2.409,0.394-4.811,0.486-7.218c0.12-3.135-0.277-5.972-4.333-6.302c-1.134-0.093-1.902-0.893-2.63-1.708
			c-6.494-7.29-2.946-19.979,6.384-22.691c1.878-0.546,3.476-1.194,3.15,2.319c-0.298,3.221,0.853,6.577,1.366,9.869
			c0-0.005-0.272-0.019-0.272-0.019L57.697,101.902z M53.387,104.563c0.985,0.004,1.859-0.184,1.978-1.378
			c0.016-0.163-0.313-0.521-0.468-0.513c-1.26,0.062-0.965,1.373-1.538,2.011l0.05,0.189L53.387,104.563z M155.958,137.438
			c-2.301-4.943-0.474-9.761,0.11-14.938c4.455,1.819,8.479,3.564,12.736,4.672c15.958,4.154,27.513-2.237,31.716-17.721
			c1.814-6.684,1.519-13.495,0.622-20.281c-0.546-4.123-1.479-8.137-4.224-11.476c-1.777-2.163-3.407-3.153-5.636-0.322
			c-2.073,2.633-4.702,4.846-7.779,6.201c-2.052,0.903-2.242,2.227-2.25,4.101c-0.019,4.214,0.714,8.515-1.343,13.423
			c0-2.648,0.068-4.459-0.028-6.261c-0.051-0.966,0.551-2.311-0.861-2.764c-1.447-0.465-2.724,0.229-3.48,1.394
			c-0.985,1.514-1.697,3.206-2.792,5.339c0.476-2.501,0.86-4.385,1.711-6.235c1.081-2.354-0.742-1.286-1.674-1.176l0.11,0.086
			c1.249-1.384,3.095-1.172,4.656-1.716c0.592-0.206,1.411-0.021,1.466-0.967c0.045-0.813-0.611-1.375-1.189-1.397
			c-2.589-0.104-2.555-3.776-5.313-3.759c-0.627,0.004-0.882-0.996,0.29-1.519c1.947-0.867,3.885-1.452,6.376-0.674
			c-1.318-4.096-3.379-7.086-6.5-8.999c-5.129-3.141-9.471-7.231-14.141-10.928c-3.389-2.683-6.98-5.212-11.337-5.702
			c-11.433-1.286-21.735,1.934-29.616,10.223c-3.246,3.415-6.722,5.88-10.59,8.262c-6.977,4.298-11.615,11.034-16.868,17.098
			c-2.726,3.146-5.077,6.574-6.396,10.595c-1.781,5.434-0.854,10.231,3.133,14.465c1.726,1.832,3.022,2.434,4.478-0.19
			c0.606-1.094,1.226-2.484,2.985-1.948l-0.016,0.003c-3.168,2.986-4.429,6.884-4.906,11.012c-0.578,5,2.169,8.092,7.233,8.704
			c3.811,0.46,7.093-0.886,10.272-2.729c3.462-2.007,6.684-4.479,10.672-5.468c5.556-1.375,6.467-2.4,6.697-8.303
			c0.104-2.662-0.169-5.345-0.375-8.01c-0.424-5.494-1.8-10.948-0.773-17.193c1.484,2.167,1.205,4.139,1.467,5.854
			c1.141,7.505,3.087,14.976,1.354,22.679c-0.801,3.558-1.615,6.583-6.353,6.691c-2.596,0.06-4.896,2.006-7.211,3.354
			c-2.89,1.679-5.672,3.554-8.845,4.707c-5.486,1.993-11.491,0.678-15.127-3.357c-1.68-1.864-3.292-4.326-2.291-6.515
			c2.309-5.054-0.672-8.025-3.393-11.313c-4.475-5.41-4.773-9.676-1.136-15.763c2.495-4.177,6.011-7.523,9.134-11.191
			c1.318-1.547,2.887-2.968,3.523-5.5c-2.146,0.258-3.88,0.329-5.553,0.688c-30.145,6.487-39.151,38.118-25.32,61.505
			c3.716,6.283,6.128,12.094,2.396,19.104c-1.274,2.395-0.271,4.295,2.13,5.625c4.629,2.564,9.594,3.171,14.759,2.904
			c1.184-0.062,2.005-0.382,2.245-1.755c1.017-5.814,4.029-11.061,4.879-16.922c0.237-1.641,0.7-2.229,2.588-1.87
			c4.365,0.831,8.817,0.405,13.232,0.279c2.27-0.064,4.62-0.18,5.496-4.011c0.384,5.848,0.384,5.848-3.93,7.402
			c-4.678,1.687-6.278,5.339-4.247,9.913c1.568,3.531,4.087,6.261,7.428,8.203c2.885,1.676,5.372,1.394,7.203-1.624
			c1.419-2.34,3.238-4.354,5.62-5.635c10.029-5.392,14.39-14.572,17.361-24.922c1.444-5.028,2.504-9.512-3.218-12.495
			c-0.081-0.043-0.076-0.248-0.111-0.377l-0.134-0.079c5.976,1.484,10.825,4.516,15.063,9.157
			c4.683,5.129,12.787,2.829,15.147-3.798c0.448-1.257,0.976-2.516-0.74-3.742c-1.589,4.014-4.381,6.288-8.771,6.074
			c-1.295-0.063-1.258,1.178-1.837,1.813L155.958,137.438z M143.325,139.734c-2.726,8.163-5.685,14.988-10.333,20.963
			c-1.226,1.576-0.949,2.709,1.202,3.037c3.602,0.548,7.203,0.037,10.806,0.008c1.203-0.01,1.605-0.965,1.684-1.895
			C147.297,154.618,146.759,147.553,143.325,139.734z M56.567,136.021c-1.595,2.703-3.863,4.418-5.846,6.393
			c-0.952,0.948-1.984,1.86-1.449,3.454c1.646,4.897,4.211,9.016,9.495,10.586c1.763,0.524,3.909,1.234,5.364-0.287
			c1.524-1.595,0.37-3.655-0.304-5.303C61.767,145.827,57.931,141.646,56.567,136.021z M56.902,106.467
			c-1.126,0.62-1.563,0.938-2.05,1.113c-1.31,0.474-2.631,1.87-4.038,0.596c-1.505-1.36-1.043-2.973-0.276-4.703
			c1.029-2.325,1.467-4.854,1.419-7.426c-0.011-0.619,0.266-1.42-0.506-1.757c-0.726-0.317-1.243,0.289-1.761,0.685
			c-3.655,2.788-4.156,9.767-1.284,14.372c1.445,2.319,3.432,2.272,5.591,1.961C56.434,110.957,56.516,109.025,56.902,106.467z"/>
		<path fill-rule="evenodd" clip-rule="evenodd" fill="#FFFFFF" d="M117.881,53.457c-2.93,2.028-5.219,4.73-7.708,7.698
			c0.519-3.956,3.528-6.755,7.802-7.62L117.881,53.457z"/>
		<path fill-rule="evenodd" clip-rule="evenodd" fill="#FFFFFF" d="M42.987,92.017c-1.353,3.124-2.706,6.246-4.218,9.737
			c-0.919-4.482,0.567-7.581,4.299-9.659L42.987,92.017z"/>
		<path fill-rule="evenodd" clip-rule="evenodd" fill="#FFFFFF" d="M36.563,98.152c-0.217-2.745,0.41-4.205,2.717-5.297
			C39.063,95.092,38.635,96.687,36.563,98.152z"/>
		<path fill-rule="evenodd" clip-rule="evenodd" fill="#FFFFFF" d="M110.756,56.021c0.295-0.71,0.591-1.42,0.886-2.131
			c0.17,0.084,0.34,0.168,0.51,0.253c-0.508,0.658-1.016,1.316-1.523,1.976L110.756,56.021z"/>
		<path fill-rule="evenodd" clip-rule="evenodd" fill="#FFFFFF" d="M117.975,53.535c0.011-0.189,0.021-0.38,0.032-0.568
			c0.655,0.352,0.079,0.369-0.129,0.488C117.881,53.457,117.975,53.535,117.975,53.535z"/>
		<path fill-rule="evenodd" clip-rule="evenodd" fill="#FFFFFF" d="M110.628,56.119c0-0.072,0.002-0.145,0.002-0.217
			c0.046,0.033,0.091,0.066,0.131,0.109C110.756,56.021,110.628,56.119,110.628,56.119z"/>
		<path fill-rule="evenodd" clip-rule="evenodd" fill="#FFFFFF" d="M43.068,92.095c0.103-0.15,0.204-0.3,0.307-0.45
			c-0.007,0.098,0.023,0.249-0.027,0.281c-0.097,0.065-0.238,0.064-0.361,0.091C42.987,92.017,43.068,92.095,43.068,92.095z"/>
		<path fill-rule="evenodd" clip-rule="evenodd" fill="#FFFFFF" d="M143.325,139.734c3.434,7.818,3.972,14.884,3.358,22.113
			c-0.078,0.93-0.48,1.885-1.684,1.895c-3.603,0.029-7.204,0.54-10.806-0.008c-2.151-0.328-2.428-1.461-1.202-3.037
			C137.641,154.723,140.6,147.897,143.325,139.734z"/>
		<path fill-rule="evenodd" clip-rule="evenodd" fill="#FFFFFF" d="M56.567,136.021c1.363,5.626,5.199,9.807,7.261,14.843
			c0.674,1.647,1.828,3.708,0.304,5.303c-1.455,1.521-3.602,0.812-5.364,0.287c-5.284-1.57-7.849-5.688-9.495-10.586
			c-0.535-1.594,0.497-2.506,1.449-3.454C52.704,140.438,54.973,138.724,56.567,136.021z"/>
		<path fill-rule="evenodd" clip-rule="evenodd" fill="#FFFFFF" d="M56.902,106.467c-0.387,2.559-0.469,4.49-2.905,4.841
			c-2.159,0.312-4.146,0.358-5.591-1.961c-2.872-4.605-2.371-11.584,1.284-14.372c0.518-0.396,1.035-1.002,1.761-0.685
			c0.771,0.337,0.495,1.138,0.506,1.757c0.048,2.571-0.39,5.101-1.419,7.426c-0.767,1.73-1.229,3.343,0.276,4.703
			c1.407,1.274,2.729-0.122,4.038-0.596C55.34,107.404,55.776,107.087,56.902,106.467z"/>
		<path fill-rule="evenodd" clip-rule="evenodd" fill="#FFFFFF" d="M53.351,104.67c0.581-0.624,0.286-1.936,1.546-1.997
			c0.155-0.008,0.483,0.35,0.468,0.513c-0.118,1.194-0.992,1.382-1.978,1.378L53.351,104.67z"/>
		<polygon fill-rule="evenodd" clip-rule="evenodd" fill="#FFFFFF" points="57.697,101.902 57.53,101.792 57.803,101.811 		"/>
		<path fill-rule="evenodd" clip-rule="evenodd" fill="#FFFFFF" d="M53.387,104.563l0.021,0.31c0,0-0.05-0.189-0.054-0.196
			S53.387,104.563,53.387,104.563z"/>
		<path fill-rule="evenodd" clip-rule="evenodd" fill="#FFFFFF" d="M155.339,85.869c-1.287,3.226,1.608,3.637,3.46,5.029
			c-3.093,1.955-6.127,3.873-9.682,6.121c0.525-0.878,0.778-1.179,0.899-1.525c0.386-1.105,3.106-1.109,1.662-2.914
			c-1.001-1.252-2.389-0.632-3.469,0.44c-1.47,1.458-1.864-2.1-3.503-0.549c2.77-3.713,5.215-7.493,10.554-6.472L155.339,85.869z"/>
		<path fill-rule="evenodd" clip-rule="evenodd" fill="#FFFFFF" d="M104.458,88.982c0.638-1.592,1.228-3.205,1.922-4.772
			c2.713-6.13,7.074-8.59,14.581-7.897c-4.443,2.051-8.484,3.993-9.135,9.313c-2.148-1.385-0.189-3.281-0.925-4.747
			c-2.318,1.306-2.985,3.742-4.219,5.76c-0.571,0.935-0.455,2.533-2.223,2.329L104.458,88.982z"/>
		<path fill-rule="evenodd" clip-rule="evenodd" fill="#FFFFFF" d="M193.393,79.896c-0.868,4.002-3.86,5.181-7.537,5.442
			c3.037-1.107,5.124-3.515,7.627-5.354L193.393,79.896z"/>
		<path fill-rule="evenodd" clip-rule="evenodd" fill="#FFFFFF" d="M139.224,81.558c0.277-2.336,1.592-3.614,3.701-4.181
			C141.691,78.771,140.457,80.164,139.224,81.558z"/>
		<path fill-rule="evenodd" clip-rule="evenodd" fill="#FFFFFF" d="M172.786,91.395c-1.225,1.121-2.449,2.243-3.675,3.364
			c0.539-1.948,1.354-3.575,3.774-3.286C172.896,91.48,172.786,91.395,172.786,91.395z"/>
		<path fill-rule="evenodd" clip-rule="evenodd" fill="#FFFFFF" d="M155.945,137.426c1.039-0.091,2.079-0.183,3.411-0.3
			c-1.259,1.294-2.373-0.008-3.398,0.313L155.945,137.426z"/>
		<path fill-rule="evenodd" clip-rule="evenodd" fill="#FFFFFF" d="M104.458,88.989c0-0.007,0.002-0.021,0.002-0.021"/>
		<line fill-rule="evenodd" clip-rule="evenodd" fill="#FFFFFF" x1="94.311" y1="114.327" x2="94.331" y2="114.323"/>
		<path fill-rule="evenodd" clip-rule="evenodd" fill="#FFFFFF" d="M193.482,79.983c0.06-0.228,0.12-0.457,0.18-0.687
			c0.113,0.124,0.227,0.248,0.339,0.372c-0.202,0.076-0.404,0.152-0.607,0.228C193.393,79.896,193.482,79.983,193.482,79.983z"/>
		<path fill-rule="evenodd" clip-rule="evenodd" fill="#FFFFFF" d="M155.261,86c-0.029-0.098-0.058-0.193-0.087-0.291
			c0.052,0.057,0.102,0.112,0.158,0.164C155.339,85.869,155.261,86,155.261,86z"/>
		<path fill-rule="evenodd" clip-rule="evenodd" fill="#FFFFFF" d="M137.217,128c-0.075,0.012-0.151,0.024-0.227,0.037
			c0.038-0.034,0.075-0.069,0.103-0.109C137.083,127.921,137.217,128,137.217,128z"/>
	</g>
</g>
</svg>
