<?xml version="1.0" encoding="utf-8"?>
<!-- Generator: Adobe Illustrator 16.0.0, SVG Export Plug-In . SVG Version: 6.00 Build 0)  -->
<!DOCTYPE svg PUBLIC "-//W3C//DTD SVG 1.1//EN" "http://www.w3.org/Graphics/SVG/1.1/DTD/svg11.dtd">
<svg version="1.1" xmlns="http://www.w3.org/2000/svg" xmlns:xlink="http://www.w3.org/1999/xlink" x="0px" y="0px" width="235px"
	 height="236.334px" viewBox="0 0 235 236.334" enable-background="new 0 0 235 236.334" xml:space="preserve">
<g id="Layer_2">
	
		<circle fill-rule="evenodd" clip-rule="evenodd" fill="#FFFFFF" stroke="#303E48" stroke-width="3" stroke-miterlimit="10" cx="117.193" cy="117.761" r="109.653"/>
</g>
<g id="Layer_1">
	<g>
		<path fill-rule="evenodd" clip-rule="evenodd" fill="#303E48" d="M57.697,101.568c6.597-14.821,19.47-20.684,34.194-23.682
			c3.83-0.779,7.107-1.994,9.657-5.057c1.469-1.764,3.385-3.216,5.633-3.704c2.418-0.526,3.861-2.032,5.527-3.654
			c9.267-9.028,19.931-14.704,33.406-13.21c3.831,0.424,7.322,1.768,10.374,4.013c9.062,6.666,18.282,13.187,25.503,21.97
			c1.702,2.071,3.027,1.864,4.515,0.136c0.953-1.108,1.682-2.408,2.528-3.609c2.657-3.762,6.785-4.054,9.818-0.618
			c0.783,0.887,1.502,1.944,1.888,3.051c3.896,11.193,5.764,22.602,2.362,34.246c-3.971,13.589-14.587,20.663-28.609,19.15
			c-2.709-0.293-3.893,0.114-4.928,2.899c-3.408,9.166-12.403,11.303-19.786,4.958c-0.847-0.729-1.76-1.162-3.118-1.504
			c1.785,8.041,3.471,15.929,3.369,24.115c-0.043,3.524-1.604,4.815-4.571,5.247c-3.194,0.463-6.455,0.718-9.62,0.146
			c-5.583-1.008-9.942,0.456-13.223,5.234c-1.365,1.987-3.423,3.365-5.482,4.663c-3.352,2.114-6.521,2.207-9.52-0.644
			c-5.116-4.863-10.04-9.809-9.288-17.767c0.097-1.016,1.846-2.36,0.006-3.016c-1.277-0.455-2.948-0.215-4.329,0.149
			c-1.115,0.295-1.179,1.733-1.4,2.732c-1.051,4.735-3.166,9.104-4.584,13.706c-0.677,2.195-1.941,3.104-4.266,3.479
			c-5.757,0.927-11.223,0.006-16.523-2.049c-4.882-1.893-6.421-4.324-5.846-9.576c0.265-2.393-0.945-2.655-2.604-3.062
			c-7.456-1.827-11.414-7.029-13.429-14.065c-0.558-1.952-0.324-3.531,1.467-4.951c4.499-3.564,6.363-8.451,6.561-14.09
			c0.084-2.409,0.394-4.811,0.486-7.218c0.12-3.135-0.277-5.972-4.334-6.302c-1.133-0.093-1.901-0.893-2.629-1.708
			c-6.494-7.29-2.946-19.979,6.384-22.691c1.878-0.546,3.476-1.194,3.15,2.319c-0.298,3.221,0.853,6.577,1.366,9.869
			c0-0.005-0.272-0.019-0.272-0.019L57.697,101.568z M53.387,104.229c0.985,0.004,1.859-0.184,1.978-1.378
			c0.016-0.163-0.313-0.521-0.468-0.513c-1.26,0.062-0.965,1.373-1.538,2.011l0.05,0.189L53.387,104.229z M155.958,137.104
			c-2.301-4.943-0.474-9.761,0.11-14.938c4.455,1.819,8.479,3.564,12.736,4.672c15.958,4.154,27.513-2.237,31.716-17.721
			c1.815-6.684,1.519-13.495,0.622-20.281c-0.546-4.123-1.479-8.137-4.225-11.476c-1.776-2.163-3.406-3.153-5.635-0.322
			c-2.073,2.633-4.702,4.846-7.779,6.201c-2.053,0.903-2.242,2.227-2.25,4.101c-0.02,4.214,0.714,8.515-1.343,13.423
			c0-2.648,0.068-4.459-0.028-6.261c-0.051-0.966,0.551-2.311-0.861-2.764c-1.447-0.465-2.724,0.229-3.48,1.394
			c-0.985,1.514-1.697,3.206-2.792,5.339c0.476-2.501,0.86-4.385,1.711-6.235c1.081-2.354-0.743-1.286-1.675-1.176l0.111,0.086
			c1.249-1.384,3.095-1.172,4.656-1.716c0.592-0.206,1.411-0.021,1.465-0.967c0.046-0.813-0.61-1.375-1.188-1.397
			c-2.589-0.104-2.555-3.776-5.313-3.759c-0.627,0.004-0.882-0.996,0.29-1.519c1.947-0.867,3.885-1.452,6.375-0.674
			c-1.317-4.096-3.378-7.086-6.5-8.999c-5.128-3.141-9.47-7.231-14.14-10.928c-3.389-2.683-6.98-5.212-11.337-5.702
			c-11.433-1.286-21.735,1.934-29.616,10.223c-3.246,3.415-6.722,5.88-10.59,8.262c-6.977,4.298-11.615,11.034-16.868,17.098
			c-2.726,3.146-5.077,6.574-6.396,10.595c-1.78,5.434-0.854,10.231,3.133,14.465c1.727,1.832,3.023,2.434,4.479-0.19
			c0.605-1.094,1.226-2.484,2.985-1.948l-0.017,0.003c-3.167,2.986-4.428,6.884-4.905,11.012c-0.578,5,2.169,8.092,7.233,8.704
			c3.811,0.46,7.092-0.886,10.272-2.729c3.462-2.007,6.683-4.479,10.672-5.468c5.556-1.375,6.467-2.4,6.696-8.303
			c0.105-2.662-0.168-5.345-0.374-8.01c-0.424-5.494-1.8-10.948-0.774-17.193c1.485,2.167,1.206,4.139,1.467,5.854
			c1.142,7.505,3.088,14.976,1.354,22.679c-0.801,3.558-1.615,6.583-6.353,6.691c-2.596,0.06-4.896,2.006-7.211,3.354
			c-2.89,1.679-5.672,3.554-8.845,4.707c-5.486,1.993-11.491,0.678-15.127-3.357c-1.68-1.864-3.292-4.326-2.291-6.515
			c2.309-5.054-0.672-8.025-3.393-11.313c-4.475-5.41-4.773-9.676-1.136-15.763c2.495-4.177,6.011-7.523,9.133-11.191
			c1.319-1.547,2.888-2.968,3.524-5.5c-2.146,0.258-3.88,0.329-5.553,0.688c-30.145,6.487-39.151,38.118-25.321,61.505
			c3.717,6.283,6.129,12.094,2.396,19.104c-1.274,2.395-0.271,4.295,2.13,5.625c4.629,2.564,9.594,3.171,14.759,2.904
			c1.184-0.062,2.005-0.382,2.245-1.755c1.017-5.814,4.029-11.061,4.879-16.922c0.237-1.641,0.7-2.229,2.587-1.87
			c4.366,0.831,8.818,0.405,13.233,0.279c2.27-0.064,4.62-0.18,5.496-4.011c0.384,5.848,0.384,5.848-3.93,7.402
			c-4.678,1.687-6.278,5.339-4.247,9.913c1.568,3.531,4.087,6.261,7.428,8.203c2.885,1.676,5.372,1.394,7.203-1.624
			c1.418-2.34,3.238-4.354,5.62-5.635c10.029-5.392,14.39-14.572,17.361-24.922c1.444-5.028,2.503-9.512-3.218-12.495
			c-0.081-0.043-0.076-0.248-0.111-0.377l-0.134-0.079c5.976,1.484,10.825,4.516,15.063,9.157
			c4.683,5.129,12.787,2.829,15.147-3.798c0.448-1.257,0.976-2.516-0.74-3.742c-1.589,4.014-4.381,6.288-8.771,6.074
			c-1.295-0.063-1.258,1.178-1.837,1.813L155.958,137.104z M143.325,139.4c-2.726,8.163-5.685,14.988-10.333,20.963
			c-1.227,1.576-0.949,2.709,1.202,3.037c3.602,0.548,7.203,0.037,10.806,0.008c1.203-0.01,1.605-0.965,1.684-1.895
			C147.297,154.284,146.759,147.219,143.325,139.4z M56.566,135.687c-1.594,2.703-3.862,4.418-5.845,6.393
			c-0.952,0.948-1.984,1.86-1.449,3.454c1.646,4.897,4.21,9.016,9.495,10.586c1.763,0.524,3.909,1.234,5.364-0.287
			c1.524-1.595,0.37-3.655-0.304-5.303C61.766,145.493,57.931,141.313,56.566,135.687z M56.902,106.133
			c-1.126,0.62-1.563,0.938-2.051,1.113c-1.309,0.474-2.63,1.87-4.037,0.596c-1.505-1.36-1.043-2.973-0.276-4.703
			c1.028-2.325,1.467-4.854,1.419-7.426c-0.011-0.619,0.266-1.42-0.506-1.757c-0.726-0.317-1.243,0.289-1.761,0.685
			c-3.655,2.788-4.156,9.767-1.284,14.372c1.445,2.319,3.432,2.272,5.591,1.961C56.434,110.623,56.516,108.691,56.902,106.133z"/>
		<path fill-rule="evenodd" clip-rule="evenodd" fill="#303E48" d="M117.881,53.123c-2.93,2.028-5.219,4.73-7.708,7.698
			c0.519-3.956,3.528-6.755,7.802-7.62L117.881,53.123z"/>
		<path fill-rule="evenodd" clip-rule="evenodd" fill="#303E48" d="M42.987,91.683c-1.353,3.124-2.706,6.246-4.218,9.737
			c-0.92-4.482,0.567-7.581,4.299-9.659L42.987,91.683z"/>
		<path fill-rule="evenodd" clip-rule="evenodd" fill="#303E48" d="M36.563,97.818c-0.217-2.745,0.41-4.205,2.717-5.297
			C39.063,94.758,38.635,96.353,36.563,97.818z"/>
		<path fill-rule="evenodd" clip-rule="evenodd" fill="#303E48" d="M110.756,55.688c0.295-0.71,0.591-1.42,0.886-2.131
			c0.17,0.084,0.34,0.168,0.509,0.253c-0.507,0.658-1.016,1.316-1.522,1.976L110.756,55.688z"/>
		<path fill-rule="evenodd" clip-rule="evenodd" fill="#303E48" d="M117.975,53.201c0.011-0.189,0.021-0.38,0.032-0.568
			c0.655,0.352,0.079,0.369-0.129,0.488C117.881,53.123,117.975,53.201,117.975,53.201z"/>
		<path fill-rule="evenodd" clip-rule="evenodd" fill="#303E48" d="M110.628,55.785c0-0.072,0.002-0.145,0.002-0.217
			c0.046,0.033,0.091,0.066,0.131,0.109C110.756,55.688,110.628,55.785,110.628,55.785z"/>
		<path fill-rule="evenodd" clip-rule="evenodd" fill="#303E48" d="M43.068,91.761c0.103-0.15,0.204-0.3,0.307-0.45
			c-0.008,0.098,0.023,0.249-0.027,0.281c-0.097,0.065-0.238,0.064-0.361,0.091L43.068,91.761z"/>
		<path fill-rule="evenodd" clip-rule="evenodd" fill="#303E48" d="M143.325,139.4c3.434,7.818,3.972,14.884,3.358,22.113
			c-0.078,0.93-0.48,1.885-1.684,1.895c-3.603,0.029-7.204,0.54-10.806-0.008c-2.151-0.328-2.429-1.461-1.202-3.037
			C137.641,154.389,140.6,147.563,143.325,139.4z"/>
		<path fill-rule="evenodd" clip-rule="evenodd" fill="#303E48" d="M56.566,135.687c1.364,5.626,5.199,9.807,7.262,14.843
			c0.674,1.647,1.828,3.708,0.304,5.303c-1.455,1.521-3.602,0.812-5.364,0.287c-5.285-1.57-7.85-5.688-9.495-10.586
			c-0.535-1.594,0.497-2.506,1.449-3.454C52.704,140.104,54.973,138.39,56.566,135.687z"/>
		<path fill-rule="evenodd" clip-rule="evenodd" fill="#303E48" d="M56.902,106.133c-0.387,2.559-0.469,4.49-2.905,4.841
			c-2.159,0.312-4.146,0.358-5.591-1.961c-2.872-4.605-2.371-11.584,1.284-14.372c0.518-0.396,1.035-1.002,1.761-0.685
			c0.771,0.337,0.495,1.138,0.506,1.757c0.048,2.571-0.391,5.101-1.419,7.426c-0.767,1.73-1.229,3.343,0.276,4.703
			c1.407,1.274,2.729-0.122,4.037-0.596C55.34,107.07,55.776,106.753,56.902,106.133z"/>
		<path fill-rule="evenodd" clip-rule="evenodd" fill="#303E48" d="M53.35,104.336c0.582-0.624,0.287-1.936,1.547-1.997
			c0.155-0.008,0.483,0.35,0.468,0.513c-0.118,1.194-0.992,1.382-1.978,1.378L53.35,104.336z"/>
		<polygon fill-rule="evenodd" clip-rule="evenodd" fill="#303E48" points="57.697,101.568 57.53,101.458 57.803,101.477 		"/>
		<path fill-rule="evenodd" clip-rule="evenodd" fill="#303E48" d="M53.387,104.229l0.021,0.31c0,0-0.05-0.189-0.054-0.196
			C53.35,104.336,53.387,104.229,53.387,104.229z"/>
		<path fill-rule="evenodd" clip-rule="evenodd" fill="#303E48" d="M155.339,85.535c-1.287,3.226,1.608,3.637,3.46,5.029
			c-3.093,1.955-6.127,3.873-9.682,6.121c0.525-0.878,0.778-1.179,0.899-1.525c0.386-1.105,3.106-1.109,1.662-2.914
			c-1.001-1.252-2.389-0.632-3.469,0.44c-1.47,1.458-1.864-2.1-3.503-0.549c2.77-3.713,5.215-7.493,10.554-6.472L155.339,85.535z"/>
		<path fill-rule="evenodd" clip-rule="evenodd" fill="#303E48" d="M104.458,88.648c0.638-1.592,1.228-3.205,1.922-4.772
			c2.713-6.13,7.074-8.59,14.581-7.897c-4.443,2.051-8.484,3.993-9.135,9.313c-2.148-1.385-0.189-3.281-0.925-4.747
			c-2.318,1.306-2.985,3.742-4.22,5.76c-0.57,0.935-0.454,2.533-2.222,2.329L104.458,88.648z"/>
		<path fill-rule="evenodd" clip-rule="evenodd" fill="#303E48" d="M193.393,79.562c-0.868,4.002-3.861,5.181-7.537,5.442
			c3.037-1.107,5.124-3.515,7.627-5.354L193.393,79.562z"/>
		<path fill-rule="evenodd" clip-rule="evenodd" fill="#303E48" d="M139.224,81.224c0.277-2.336,1.591-3.614,3.701-4.181
			C141.691,78.437,140.457,79.83,139.224,81.224z"/>
		<path fill-rule="evenodd" clip-rule="evenodd" fill="#303E48" d="M172.785,91.061c-1.224,1.121-2.448,2.243-3.674,3.364
			c0.539-1.948,1.354-3.575,3.773-3.286C172.896,91.146,172.785,91.061,172.785,91.061z"/>
		<path fill-rule="evenodd" clip-rule="evenodd" fill="#303E48" d="M155.945,137.092c1.039-0.091,2.079-0.183,3.411-0.3
			c-1.259,1.294-2.374-0.008-3.398,0.313L155.945,137.092z"/>
		<path fill-rule="evenodd" clip-rule="evenodd" fill="#303E48" d="M104.458,88.655c0-0.007,0.002-0.021,0.002-0.021"/>
		<line fill-rule="evenodd" clip-rule="evenodd" fill="#303E48" x1="94.311" y1="113.993" x2="94.331" y2="113.989"/>
		<path fill-rule="evenodd" clip-rule="evenodd" fill="#303E48" d="M193.482,79.649c0.06-0.228,0.119-0.457,0.18-0.687
			c0.113,0.124,0.227,0.248,0.339,0.372c-0.202,0.076-0.404,0.152-0.607,0.228L193.482,79.649z"/>
		<path fill-rule="evenodd" clip-rule="evenodd" fill="#303E48" d="M155.261,85.666c-0.03-0.098-0.058-0.193-0.087-0.291
			c0.052,0.057,0.102,0.112,0.158,0.164C155.339,85.535,155.261,85.666,155.261,85.666z"/>
		<path fill-rule="evenodd" clip-rule="evenodd" fill="#303E48" d="M137.217,127.666c-0.075,0.012-0.151,0.024-0.227,0.037
			c0.038-0.034,0.075-0.069,0.103-0.109C137.083,127.587,137.217,127.666,137.217,127.666z"/>
	</g>
</g>
</svg>
