<?xml version="1.0" encoding="utf-8"?>
<!-- Generator: Adobe Illustrator 16.0.0, SVG Export Plug-In . SVG Version: 6.00 Build 0)  -->
<!DOCTYPE svg PUBLIC "-//W3C//DTD SVG 1.1//EN" "http://www.w3.org/Graphics/SVG/1.1/DTD/svg11.dtd">
<svg version="1.1" xmlns="http://www.w3.org/2000/svg" xmlns:xlink="http://www.w3.org/1999/xlink" x="0px" y="0px"
	 width="265.91px" height="265.91px" viewBox="0 0 265.91 265.91" enable-background="new 0 0 265.91 265.91" xml:space="preserve">
<g id="Layer_2">
	
		<rect x="22.91" y="20.91" fill-rule="evenodd" clip-rule="evenodd" fill="none" stroke="#303E48" stroke-width="10" stroke-miterlimit="10" width="224" height="224"/>
</g>
<g id="Layer_1">
	<g>
		<path fill-rule="evenodd" clip-rule="evenodd" fill="#303E48" d="M138.584,149.921c5.256,1.235,10.08,2.37,16.609,3.902
			c-3.156-6.173-5.44-11.296-8.328-16.053c-1.958-3.228-1.689-5.447,0.787-8.181c4.374-4.821,8.406-9.949,11.618-16.221
			c-4.648,1.213-9.432,2.056-13.908,3.727c-6.271,2.344-10.48,1.298-13.273-5.263c-1.589-3.733-4.314-6.981-7.642-12.189
			c-1.353,6.987-2.637,11.881-3.17,16.853c-0.594,5.561-2.94,8.81-8.645,10.044c-5.132,1.112-10.073,3.106-15.402,6.272
			c4.867,2.133,9.734,4.266,14.649,6.42c-6.33,7.401-8.421,7.926-16.691,4.184c-2.839-1.284-6.041-2.202-8.317-4.167
			c-2.157-1.863-4.561-4.896-4.526-7.382c0.026-2.012,3.167-4.822,5.536-5.799c6.354-2.623,13.181-4.112,19.516-6.776
			c2.372-0.998,4.867-3.699,5.625-6.146c1.698-5.483,1.787-11.48,3.619-16.902c1.144-3.379,4.271-6.091,6.507-9.102
			c2.997,2.238,6.438,4.082,8.872,6.821c2.622,2.949,4.664,6.575,6.304,10.199c2.155,4.762,5.22,5.101,9.705,3.673
			c5.922-1.881,11.975-3.536,18.093-4.548c2.663-0.438,5.633,0.96,8.463,1.524c-0.817,2.82-0.947,6.146-2.587,8.357
			c-4.234,5.721-9.011,11.063-13.822,16.326c-2.511,2.744-2.778,5.074-0.843,8.285c2.87,4.764,5.696,9.646,7.7,14.803
			c1.074,2.767,1.677,7.362,0.165,9.06c-1.814,2.038-6.124,2.55-9.321,2.469c-3.22-0.083-6.346-2.081-9.612-2.568
			C139.748,160.574,138.265,156.507,138.584,149.921z"/>
		<path fill-rule="evenodd" clip-rule="evenodd" fill="#303E48" d="M109.387,171.896c-3.218-13.649-3.703-24.028,8.132-29.944
			c-1.072,8.856-2.087,12.911-3.325,23.122c6.999-7.646,12.77-9.63,19.312-16.779c1.043,5.683,3.696,10.205-1.249,14.477
			c-3.507,3.032-17.256,12.119-20.895,15.983"/>
	</g>
</g>
</svg>
