<?xml version="1.0" encoding="utf-8"?>
<!-- Generator: Adobe Illustrator 16.0.0, SVG Export Plug-In . SVG Version: 6.00 Build 0)  -->
<!DOCTYPE svg PUBLIC "-//W3C//DTD SVG 1.1//EN" "http://www.w3.org/Graphics/SVG/1.1/DTD/svg11.dtd">
<svg version="1.1" xmlns="http://www.w3.org/2000/svg" xmlns:xlink="http://www.w3.org/1999/xlink" x="0px" y="0px"
	 width="265.91px" height="265.91px" viewBox="0 0 265.91 265.91" enable-background="new 0 0 265.91 265.91" xml:space="preserve">
<g id="Layer_2">
	
		<rect x="27.91" y="25.91" fill-rule="evenodd" clip-rule="evenodd" fill="none" stroke="#303E48" stroke-width="10" stroke-miterlimit="10" width="214" height="214"/>
</g>
<g id="Layer_1">
	<g>
		<path fill-rule="evenodd" clip-rule="evenodd" fill="#303E48" d="M120.004,101.872c0,2.851,0,5.658,0,8.553
			c5.108,1.04,9.373,3.44,12.776,7.483c2.552-1.475,4.972-2.875,7.339-4.243c-1.414-10.837,2.251-17.969,10.613-20.86
			c7.473-2.585,15.737,0.479,19.686,7.298c4.035,6.971,2.631,15.506-3.439,20.909c-6.391,5.687-14.615,5.25-23.336-1.288
			c-2.398,1.388-4.825,2.795-7.313,4.236c1.747,5.028,1.687,9.919,0.016,14.896c2.511,1.449,4.938,2.852,7.331,4.233
			c8.504-8.082,18.313-5.663,23.175-1.422c6.154,5.368,7.646,14.218,3.55,21.075c-4.151,6.949-12.649,9.931-20.156,7.08
			c-6.303-2.395-12.722-9.508-10.031-20.616c-2.364-1.378-4.784-2.789-7.101-4.139c-2.086,1.619-3.94,3.376-6.087,4.631
			c-2.088,1.22-4.478,1.922-6.976,2.95c0,2.494,0,5.291,0,7.488c3.068,2.134,6.25,3.726,8.62,6.119
			c5.15,5.205,5.708,13.3,1.882,19.604c-3.752,6.18-11.043,9.174-18.126,7.447c-7.125-1.738-12.299-8.073-12.636-15.473
			c-0.316-6.977,4.168-13.812,10.849-16.089c1.84-0.626,2.165-1.514,2.326-3.283c0.36-3.962-0.386-6.202-4.848-7.768
			c-8.801-3.085-13.541-11.807-12.858-21.331c0.604-8.446,6.95-16.027,15.583-18.382c1.596-0.436,1.969-1.102,2.114-2.688
			c0.369-4.029-0.285-6.564-4.725-8.563c-7.178-3.23-10.022-11.816-7.619-19.225c2.448-7.543,9.596-12.169,17.646-11.42
			c7.322,0.681,13.696,6.891,14.542,14.164c0.956,8.225-3.436,15.35-11.104,18.019C121.141,101.463,120.587,101.663,120.004,101.872
			z M116.539,120.379c-5.993-0.086-11.008,4.761-11.092,10.72c-0.088,6.222,4.613,11.18,10.725,11.309
			c6.08,0.13,11.171-4.776,11.24-10.83C127.48,125.453,122.639,120.468,116.539,120.379z M163.674,154.297
			c-0.023-4.28-3.428-7.627-7.691-7.557c-4.079,0.067-7.52,3.561-7.495,7.605c0.026,4.071,3.476,7.536,7.542,7.575
			C160.291,161.963,163.694,158.567,163.674,154.297z M123.944,85.674c0.056-4.212-3.171-7.587-7.327-7.666
			c-4.218-0.08-7.752,3.269-7.873,7.459c-0.116,4.046,3.532,7.719,7.665,7.716C120.556,93.181,123.888,89.86,123.944,85.674z
			 M163.672,108.341c-0.04-4.097-3.466-7.474-7.582-7.472c-4.137,0.003-7.687,3.613-7.603,7.733
			c0.083,4.062,3.549,7.439,7.649,7.449C160.361,116.063,163.713,112.63,163.672,108.341z M123.948,177.257
			c0-4.294-3.393-7.706-7.616-7.657c-4.059,0.048-7.567,3.549-7.588,7.571c-0.02,4.138,3.529,7.634,7.729,7.612
			C120.643,184.763,123.949,181.434,123.948,177.257z"/>
	</g>
</g>
</svg>
