<?xml version="1.0" encoding="utf-8"?>
<!-- Generator: Adobe Illustrator 16.0.0, SVG Export Plug-In . SVG Version: 6.00 Build 0)  -->
<!DOCTYPE svg PUBLIC "-//W3C//DTD SVG 1.1//EN" "http://www.w3.org/Graphics/SVG/1.1/DTD/svg11.dtd">
<svg version="1.1" xmlns="http://www.w3.org/2000/svg" xmlns:xlink="http://www.w3.org/1999/xlink" x="0px" y="0px" width="235px"
	 height="236.334px" viewBox="0 0 235 236.334" enable-background="new 0 0 235 236.334" xml:space="preserve">
<g id="Layer_2">
	
		<circle fill-rule="evenodd" clip-rule="evenodd" fill="#FFFFFF" stroke="#303E48" stroke-width="3" stroke-miterlimit="10" cx="117.46" cy="117.761" r="109.653"/>
</g>
<g id="Layer_1">
	<g>
		<path fill-rule="evenodd" clip-rule="evenodd" fill="#303E48" d="M125.787,135.011c5.256,1.235,10.08,2.37,16.609,3.902
			c-3.156-6.173-5.44-11.296-8.328-16.053c-1.958-3.228-1.689-5.447,0.787-8.181c4.374-4.821,8.406-9.949,11.618-16.221
			c-4.648,1.213-9.432,2.056-13.908,3.727c-6.271,2.344-10.479,1.298-13.273-5.263c-1.589-3.733-4.314-6.981-7.642-12.189
			c-1.353,6.987-2.637,11.881-3.17,16.853c-0.594,5.561-2.94,8.81-8.645,10.044c-5.132,1.112-10.073,3.106-15.402,6.272
			c4.867,2.133,9.734,4.266,14.649,6.42c-6.33,7.401-8.421,7.926-16.691,4.184c-2.839-1.284-6.042-2.202-8.317-4.167
			c-2.157-1.863-4.561-4.896-4.526-7.382c0.026-2.012,3.167-4.822,5.536-5.799c6.354-2.623,13.181-4.112,19.516-6.776
			c2.372-0.998,4.867-3.699,5.625-6.146c1.698-5.483,1.787-11.48,3.619-16.902c1.144-3.379,4.271-6.091,6.506-9.102
			c2.998,2.238,6.438,4.082,8.873,6.821c2.622,2.949,4.664,6.575,6.304,10.199c2.155,4.762,5.22,5.101,9.704,3.673
			c5.923-1.881,11.976-3.536,18.094-4.548c2.663-0.438,5.633,0.96,8.463,1.524c-0.817,2.82-0.947,6.146-2.588,8.357
			c-4.234,5.721-9.01,11.063-13.821,16.326c-2.511,2.744-2.778,5.074-0.843,8.285c2.87,4.764,5.695,9.646,7.699,14.803
			c1.075,2.767,1.678,7.362,0.166,9.06c-1.814,2.038-6.124,2.55-9.321,2.469c-3.22-0.083-6.346-2.081-9.612-2.568
			C126.951,145.664,125.468,141.597,125.787,135.011z"/>
		<path fill-rule="evenodd" clip-rule="evenodd" fill="#303E48" d="M96.59,156.985c-3.218-13.649-3.703-24.028,8.132-29.944
			c-1.072,8.856-2.087,12.911-3.325,23.122c6.999-7.646,12.77-9.63,19.312-16.779c1.043,5.683,3.696,10.205-1.249,14.477
			c-3.508,3.032-17.256,12.119-20.895,15.983"/>
	</g>
</g>
</svg>
