<?xml version="1.0" encoding="utf-8"?>
<!-- Generator: Adobe Illustrator 16.0.0, SVG Export Plug-In . SVG Version: 6.00 Build 0)  -->
<!DOCTYPE svg PUBLIC "-//W3C//DTD SVG 1.1//EN" "http://www.w3.org/Graphics/SVG/1.1/DTD/svg11.dtd">
<svg version="1.1" xmlns="http://www.w3.org/2000/svg" xmlns:xlink="http://www.w3.org/1999/xlink" x="0px" y="0px"
	 width="265.91px" height="265.91px" viewBox="0 0 265.91 265.91" enable-background="new 0 0 265.91 265.91" xml:space="preserve">
<g id="Layer_2">
	
		<rect x="22.228" y="24.924" fill-rule="evenodd" clip-rule="evenodd" fill="none" stroke="#303E48" stroke-width="10" stroke-miterlimit="10" width="220" height="220"/>
</g>
<g id="Layer_1">
	<g>
		<path fill-rule="evenodd" clip-rule="evenodd" fill="#303E48" d="M156.973,150.882c-7.794,4.497-15.023,8.669-22.557,13.016
			c0-8.766,0-17.248,0-26.078C141.884,142.145,149.215,146.39,156.973,150.882z"/>
		<path fill-rule="evenodd" clip-rule="evenodd" fill="#303E48" d="M156.965,182.501c-7.685,4.435-15.041,8.681-22.674,13.084
			c0-8.867,0-17.294,0-26.19C141.918,173.803,149.277,178.056,156.965,182.501z"/>
		<path fill-rule="evenodd" clip-rule="evenodd" fill="#303E48" d="M134.306,100.707c0-8.903,0-17.325,0-26.192
			c7.636,4.417,14.984,8.667,22.645,13.097C149.319,92.024,142.021,96.245,134.306,100.707z"/>
		<path fill-rule="evenodd" clip-rule="evenodd" fill="#303E48" d="M129.574,135.019c-7.62,4.429-14.89,8.656-22.474,13.064
			c0-8.739,0-17.147,0-26.049C114.561,126.343,121.892,130.58,129.574,135.019z"/>
		<path fill-rule="evenodd" clip-rule="evenodd" fill="#303E48" d="M129.593,166.651c-7.769,4.511-15.027,8.727-22.56,13.102
			c0-8.872,0-17.275,0-26.127C114.612,158.001,121.88,162.197,129.593,166.651z"/>
		<path fill-rule="evenodd" clip-rule="evenodd" fill="#303E48" d="M130.87,163.803c-7.51-4.331-14.729-8.495-22.389-12.913
			c7.557-4.379,14.868-8.617,22.389-12.976C130.87,146.724,130.87,155.065,130.87,163.803z"/>
		<path fill-rule="evenodd" clip-rule="evenodd" fill="#303E48" d="M158.157,179.611c-7.493-4.348-14.756-8.562-22.332-12.958
			c7.538-4.355,14.777-8.537,22.332-12.9C158.157,162.464,158.157,170.832,158.157,179.611z"/>
		<path fill-rule="evenodd" clip-rule="evenodd" fill="#303E48" d="M130.946,169.49c0,8.782,0,17.068,0,25.953
			c-7.539-4.338-14.804-8.518-22.459-12.925C116.009,178.155,123.252,173.954,130.946,169.49z"/>
		<path fill-rule="evenodd" clip-rule="evenodd" fill="#303E48" d="M108.485,87.618c7.549-4.366,14.811-8.565,22.386-12.945
			c0,8.759,0,17.063,0,25.857C123.315,96.171,116.048,91.98,108.485,87.618z"/>
		<path fill-rule="evenodd" clip-rule="evenodd" fill="#303E48" d="M158.214,122.101c0,8.793,0,17.111,0,25.889
			c-7.589-4.393-14.867-8.606-22.405-12.97C143.32,130.689,150.604,126.489,158.214,122.101z"/>
	</g>
</g>
</svg>
