<?xml version="1.0" encoding="utf-8"?>
<!-- Generator: Adobe Illustrator 16.0.0, SVG Export Plug-In . SVG Version: 6.00 Build 0)  -->
<!DOCTYPE svg PUBLIC "-//W3C//DTD SVG 1.1//EN" "http://www.w3.org/Graphics/SVG/1.1/DTD/svg11.dtd">
<svg version="1.1" xmlns="http://www.w3.org/2000/svg" xmlns:xlink="http://www.w3.org/1999/xlink" x="0px" y="0px" width="235px"
	 height="236.334px" viewBox="0 0 235 236.334" enable-background="new 0 0 235 236.334" xml:space="preserve">
<g id="Layer_2">
	
		<circle fill-rule="evenodd" clip-rule="evenodd" fill="#FFFFFF" stroke="#303E48" stroke-width="3" stroke-miterlimit="10" cx="117.347" cy="118.799" r="109.653"/>
</g>
<g id="Layer_1">
	<g>
		<path fill-rule="evenodd" clip-rule="evenodd" fill="#303E48" d="M113.486,98.781c-0.646-1.82,0.15-2.945,1.73-3.77
			c1.313-0.684,2.578-1.455,3.766-2.338c-5.317,0.949-10.598,1.957-11.93,8.904c-0.198-0.135-0.395-0.271-0.593-0.408
			c-0.9-1.701-1.8-3.402-2.701-5.105c-0.159,0.057-0.318,0.113-0.479,0.172c0.639,1.775,1.354,3.529,1.889,5.338
			c0.318,1.078,0.674,2.307,0.457,3.352c-0.527,2.529,0.377,5.33-1.636,7.66c-0.362,0.422,0.589,2.436,1.388,3.291
			c1.252,1.342,2.892,2.322,4.197,3.676c-7.99-1.549-13.541-13.705-10.663-23.271c-13.703,4.232-24.05,13.84-35.77,21.031
			c-0.164-0.225-0.329-0.451-0.492-0.678c4.329-3.613,8.524-7.402,13.013-10.805c10.212-7.74,21.535-13.152,34.144-15.816
			c1.378-0.289,2.531-1.639,3.788-2.496c-0.094-0.221-0.188-0.443-0.282-0.664c0.568,0.654,1.138,1.309,1.856,2.137
			c0.711-0.766,1.281-1.379,1.85-1.99c1.045,2.656,1.738,2.471,5.007-1.465c0,1.014,0,1.896,0,2.777
			c0.187,0.135,0.373,0.268,0.56,0.402c1.06-1.217,2.119-2.432,3.178-3.65c0.605,2.768,0.916,2.838,4.996,1.113
			c0.049,3.08,4.402,2.41,8.324-1.037c-0.648,1.182-1.295,2.363-2.047,3.734c3.043,0.719,4.705-1.207,6.916-3.012
			c-0.678,1.643-1.193,2.889-1.971,4.77c3.769-1.369,5.734-4.098,8.517-5.914c-1.483,2.006-2.964,4.012-4.445,6.016
			c0.08,0.125,0.159,0.25,0.239,0.375c1.28-0.631,2.561-1.26,4.023-1.98c-0.521,1.131-0.985,2.135-1.451,3.141
			c0.205,0.205,0.41,0.412,0.615,0.617c3.699-0.457,5.218-4.049,8.085-5.949c-1.745,2.547-3.486,5.094-5.229,7.641
			c0.125,0.225,0.252,0.451,0.376,0.678c1.354-0.662,2.815-1.17,4.03-2.027c1.408-0.994,2.641-2.256,3.873-3.479
			c1.166-1.158,2.232-2.416,3.344-3.629c0.19,0.141,0.38,0.281,0.57,0.422c-1.853,2.555-3.705,5.109-5.777,7.969
			c4.324-1.611,6.704-5.084,9.478-8.068c0.161,0.125,0.321,0.248,0.483,0.373c-2.064,3.113-4.128,6.227-6.47,9.762
			c4.88-2.33,7.478-6.541,10.569-10.205c0.178,0.137,0.356,0.275,0.535,0.41c-2.472,3.492-4.943,6.986-7.382,10.434
			c2.128,1.07,3.26,0.559,15-6.537c-2.367,2.734-4.733,5.469-7.06,8.156c2.076,1.039,3.046,0.695,9.933-3.592
			c-4.603,5.07-10.084,8.74-17.166,8.303c-2.905-0.18-5.676-2.166-8.554-3.205c-6.672-2.404-13.365-4.746-20.068-7.066
			c-0.712-0.246-1.539-0.164-2.686,0.281c0.518,0.387,1.035,0.771,1.555,1.156l0.029-0.051c-0.393,0.836-0.735,1.701-1.199,2.496
			c-0.33,0.564-0.73,1.33-1.257,1.488c-1.413,0.428-1.764,1.244-1.796,2.629c-0.014,0.602-0.744,1.379-1.35,1.732
			c-0.848,0.5-1.885,0.678-3.552,1.225c1.06-1.68,1.767-2.805,2.815-4.469c-1.664,0.941-2.833,1.602-4.468,2.527
			c0.489-1.848,0.86-3.25,1.407-5.309c-1.171,1.527-1.941,2.535-3.066,4.002c-0.218-1.854-0.372-3.168-0.596-5.066
			c-0.848,1.717-1.427,2.891-2.201,4.457c-0.631-1.574-1.12-2.787-1.869-4.654c0,1.98,0,3.313,0,4.645
			c-0.163,0.074-0.324,0.146-0.486,0.221c-0.579-0.727-1.158-1.455-1.982-2.49c0.174,1.305,0.301,2.254,0.48,3.617
			c-1.551-0.982-2.783-1.764-4.016-2.541C113.704,99.041,113.596,98.91,113.486,98.781z"/>
		<path fill-rule="evenodd" clip-rule="evenodd" fill="#303E48" d="M143.747,125.637c1.781,5.668,3.373,10.734,4.964,15.797
			c-0.298,0.088-0.596,0.176-0.893,0.262c-0.346-1.502-0.521-3.072-1.075-4.492c-0.823-2.115-1.737-4.236-2.96-6.133
			c-0.67-1.039-1.946-1.875-3.133-2.355c-2.73-1.102-3.938-0.063-3.434,2.865c0.248,1.451,0.814,2.85,1.228,4.229
			c-2.127-2.082-4.28-4.193-6.435-6.301c-0.254,0.189-0.508,0.381-0.762,0.568c1.949,5.092,4.699,9.975,4.42,15.668
			c-0.798-5.555-2.738-10.467-7.166-13.736c-0.594,3.961-1.182,7.881-1.77,11.803c-0.271-0.029-0.544-0.057-0.815-0.086
			c0-0.525-0.03-1.057,0.008-1.58c0.047-0.631,0.239-1.26,0.218-1.885c-0.082-2.352-0.015-4.74-0.416-7.043
			c-0.283-1.623-1.453-2.83-3.438-2.5c-1.921,0.32-1.929,1.813-1.955,3.264c-0.024,1.418-0.005,2.836-0.005,4.061
			c-0.585-1.563-1.124-3.383-1.935-5.074c-1.175-2.451-2.106-2.539-3.61-0.336c-1.691,2.477-3.211,5.074-4.809,7.615
			c-0.443,0.705-0.902,1.4-1.668,1.941c1.111-3.605,2.222-7.211,3.333-10.818c-0.331-0.145-0.663-0.291-0.993-0.439
			c-1.167,1.854-2.332,3.709-3.684,5.854c0-2.055,0-3.824,0-5.594c-0.21-0.139-0.42-0.277-0.632-0.418
			c-2.217,1.631-4.435,3.26-6.961,5.117c0.868-1.379,1.565-2.402,2.179-3.471c1.25-2.182,0.164-4.352-2.367-4.154
			c-1.682,0.131-3.338,1.135-4.906,1.938c-0.849,0.438-1.492,1.275-2.521,1.699c0.299-0.699,0.753-1.375,0.857-2.1
			c0.125-0.859,0.219-1.943-0.205-2.574c-0.24-0.354-1.677-0.248-2.348,0.096c-2.376,1.217-4.655,2.625-7.39,4.201
			c0.868-1.252,1.542-2.15,2.135-3.1c1.068-1.709,0.698-2.678-1.326-2.936c-2.268-0.289-4.573-0.264-6.857-0.438
			c-4.081-0.309-8.164-0.609-12.232-1.037c-0.959-0.102-1.866-0.699-2.747-1.295c7.395,2.012,14.792-0.227,22.144,0.281
			c3.6,0.248,7.219,0.854,10.721,1.725c8.474,2.102,16.979,3.908,25.76,3.371c12.632-0.77,24.581-3.707,34.307-12.414
			c2.557-2.287,4.656-5.15,6.676-7.957c2.575-3.582,4.154-3.922,8.068-0.961c-1.093-0.082-1.971-0.146-2.849-0.215
			c-0.089,0.186-0.179,0.371-0.269,0.557c2.021,1.254,4.039,2.51,6.104,3.793c-1.527-0.098-2.986-0.189-4.447-0.283
			c-0.146,0.184-0.291,0.365-0.436,0.545c1.241,1.482,2.482,2.963,4.055,4.84c-2.008-1.035-3.605-1.859-5.202-2.684
			c-0.147,0.191-0.294,0.381-0.441,0.572c0.685,1.07,1.368,2.139,2.192,3.428c-3.286-0.848-6.084-3.154-10.322-2.037
			c1.551,1.709,2.797,3.082,3.865,4.264c-0.924,0.057-2.012,0.123-3.102,0.188c0.357,1.164,0.528,2.43,1.107,3.465
			c1.061,1.898,2.361,3.66,3.373,5.66c-2.709-2.516-5.417-5.031-8.127-7.547c-0.242,0.158-0.485,0.318-0.728,0.479
			c0.464,1.23,0.926,2.461,1.426,3.789c-1.687-1.08-3.306-2.119-4.924-3.156c-0.187,0.178-0.376,0.355-0.562,0.531
			c0.698,4.553,3.578,8.211,5.646,12.822C151.885,131.906,149.619,126.979,143.747,125.637z"/>
		<path fill-rule="evenodd" clip-rule="evenodd" fill="#303E48" d="M115.918,114.746c-0.146,0.961-0.291,1.922-0.528,3.486
			c1.29-1.648,2.222-2.838,3.487-4.451c0,1.895,0,3.229,0,5.094c0.727-1.672,1.248-2.869,2.007-4.613
			c0.69,1.982,1.212,3.479,1.949,5.596c0.262-2.01,0.444-3.422,0.696-5.352c0.766,1.109,1.296,1.877,2.148,3.115
			c-0.306-1.535-0.515-2.582-0.819-4.115c1.505,0.994,2.673,1.766,4.458,2.945c-0.952-1.67-1.548-2.713-2.467-4.328
			c1.861,0.648,3.201,1.115,5.188,1.807c-1.287-1.447-2.167-2.439-3.048-3.432c0.116-0.246,0.232-0.49,0.348-0.736
			c2.393,0.859,4.788,1.717,7.502,2.691c-3.316,5.227-7.623,8.301-13.065,9.383c-2.943,0.588-6.109,0.381-9.14,0.123
			c-2.385-0.203-2.941-1.57-1.794-3.602c0.757-1.34,1.717-2.566,2.586-3.844C115.59,114.592,115.754,114.668,115.918,114.746z"/>
		<path fill-rule="evenodd" clip-rule="evenodd" fill="#303E48" d="M136.918,94.713c4.165,3.477,3.51,7.896,2.353,12.365
			c-0.37,1.434-1.013,2.797-1.546,4.227c-2.623-1.209-5.075-2.34-7.853-3.621c0.952-0.348,1.825-0.668,2.626-0.961
			c-0.134-0.354-0.506-0.949-0.387-1.074c1.011-1.053,2.148-1.986,3.171-3.029c0.564-0.576,1.318-1.254,1.405-1.957
			c0.244-1.973,0.187-3.982,0.254-5.988C136.947,94.662,136.918,94.713,136.918,94.713z"/>
		<path fill-rule="evenodd" clip-rule="evenodd" fill="#303E48" d="M112.333,111.957c0.813-0.24,1.626-0.482,2.802-0.83
			c-1.587,2.545-3.003,4.813-4.474,7.172c-1.142-1.18-2.163-2.348-1.116-4.373c0.307-0.596-0.086-2.154-0.637-2.492
			c-2.601-1.6-1.35-3.738-1.432-6.09c2.676,1.391,3.453,4.848,7.125,3.885c-0.104,0.248-0.21,0.496-0.314,0.746
			c-0.721,0.568-1.44,1.141-2.16,1.711C112.195,111.775,112.264,111.867,112.333,111.957z"/>
		<path fill-rule="evenodd" clip-rule="evenodd" fill="#303E48" d="M113.486,98.781c0.109,0.129,0.218,0.26,0.326,0.391
			c0.776,1.168,1.552,2.336,2.69,4.051c-1.917-0.549-3.324-0.951-5.259-1.506c1.401,1.18,2.42,2.039,3.657,3.08
			c-2.702,0.709-4.922,0.875-6.531-1.527C108.717,100.225,110.87,99.238,113.486,98.781z"/>
	</g>
</g>
</svg>
